# xmcd
#
# Track frame offsets:
#	182
#	11267
#	22665
#	35482
#	51410
#	65737
#	75865
#	88020
#	98392
#	125987
#
# Disc length: 1835 seconds
# Revision: 2
# Processed by: cddbd v1.5.2PL0 Copyright (c) Steve Scherf et al.
# Submitted via: dBpowerAMP V12.0
#
DISCID=6f07290a
DTITLE=Various Artist - Golden Songs of Inspiration
DYEAR=1900
DGENRE=
TTITLE0=Daddy Sang Bass - The Stamps Quartet
TTITLE1=It Is No Secret - Anita Bryant
TTITLE2=Just a Closer Walk with Thee - Patsy Cline
TTITLE3=Count Your Blessings - Rosemary Clooney
TTITLE4=Bless This House - Mahalia Jackson
TTITLE5=I Believe - Frankie Laine
TTITLE6=When I Lay My Burden Down - Oak Ridge Boys
TTITLE7=Wings of a Dove - Ferlin Husky
TTITLE8=Old Rugged Cross - Glen Yarborough
TTITLE9=Go Tell it On the Mountain - The Platters
EXTD=
EXTT0=
EXTT1=
EXTT2=
EXTT3=
EXTT4=
EXTT5=
EXTT6=
EXTT7=
EXTT8=
EXTT9=
PLAYORDER=
